<svg width="25" height="28" viewBox="0 0 25 28" fill="none" xmlns="http://www.w3.org/2000/svg">
<path d="M19.7917 4.66659H17.7084V3.49992C17.7084 3.1905 17.5986 2.89375 17.4033 2.67496C17.2079 2.45617 16.943 2.33325 16.6667 2.33325C16.3904 2.33325 16.1255 2.45617 15.9301 2.67496C15.7348 2.89375 15.625 3.1905 15.625 3.49992V4.66659H9.37504V3.49992C9.37504 3.1905 9.26529 2.89375 9.06994 2.67496C8.87459 2.45617 8.60964 2.33325 8.33337 2.33325C8.05711 2.33325 7.79216 2.45617 7.59681 2.67496C7.40145 2.89375 7.29171 3.1905 7.29171 3.49992V4.66659H5.20837C4.37957 4.66659 3.58472 5.03533 2.99867 5.69171C2.41261 6.34809 2.08337 7.23833 2.08337 8.16659V22.1666C2.08337 23.0948 2.41261 23.9851 2.99867 24.6415C3.58472 25.2978 4.37957 25.6666 5.20837 25.6666H19.7917C20.6205 25.6666 21.4154 25.2978 22.0014 24.6415C22.5875 23.9851 22.9167 23.0948 22.9167 22.1666V8.16659C22.9167 7.23833 22.5875 6.34809 22.0014 5.69171C21.4154 5.03533 20.6205 4.66659 19.7917 4.66659ZM20.8334 22.1666C20.8334 22.476 20.7236 22.7728 20.5283 22.9915C20.3329 23.2103 20.068 23.3333 19.7917 23.3333H5.20837C4.93211 23.3333 4.66716 23.2103 4.4718 22.9915C4.27645 22.7728 4.16671 22.476 4.16671 22.1666V13.9999H20.8334V22.1666ZM20.8334 11.6666H4.16671V8.16659C4.16671 7.85717 4.27645 7.56042 4.4718 7.34163C4.66716 7.12284 4.93211 6.99992 5.20837 6.99992H7.29171V8.16659C7.29171 8.47601 7.40145 8.77275 7.59681 8.99154C7.79216 9.21034 8.05711 9.33325 8.33337 9.33325C8.60964 9.33325 8.87459 9.21034 9.06994 8.99154C9.26529 8.77275 9.37504 8.47601 9.37504 8.16659V6.99992H15.625V8.16659C15.625 8.47601 15.7348 8.77275 15.9301 8.99154C16.1255 9.21034 16.3904 9.33325 16.6667 9.33325C16.943 9.33325 17.2079 9.21034 17.4033 8.99154C17.5986 8.77275 17.7084 8.47601 17.7084 8.16659V6.99992H19.7917C20.068 6.99992 20.3329 7.12284 20.5283 7.34163C20.7236 7.56042 20.8334 7.85717 20.8334 8.16659V11.6666Z" fill="black"/>
</svg>
