<svg width="27" height="28" viewBox="0 0 27 28" fill="none" xmlns="http://www.w3.org/2000/svg">
<path d="M24.1874 4.6665H21.7499V6.22206H23.9999V23.3332H2.99995V6.22206H5.24995V4.6665H2.81245C2.63713 4.66954 2.4641 4.70837 2.30325 4.78077C2.1424 4.85316 1.99688 4.95771 1.87499 5.08844C1.75311 5.21917 1.65726 5.37352 1.59291 5.54267C1.52856 5.71182 1.49697 5.89247 1.49995 6.07428V23.4809C1.49697 23.6628 1.52856 23.8434 1.59291 24.0126C1.65726 24.1817 1.75311 24.3361 1.87499 24.4668C1.99688 24.5975 2.1424 24.7021 2.30325 24.7745C2.4641 24.8469 2.63713 24.8857 2.81245 24.8887H24.1874C24.3628 24.8857 24.5358 24.8469 24.6966 24.7745C24.8575 24.7021 25.003 24.5975 25.1249 24.4668C25.2468 24.3361 25.3426 24.1817 25.407 24.0126C25.4713 23.8434 25.5029 23.6628 25.4999 23.4809V6.07428C25.5029 5.89247 25.4713 5.71182 25.407 5.54267C25.3426 5.37352 25.2468 5.21917 25.1249 5.08844C25.003 4.95771 24.8575 4.85316 24.6966 4.78077C24.5358 4.70837 24.3628 4.66954 24.1874 4.6665Z" fill="black"/>
<path d="M6 10.8887H7.5V12.4442H6V10.8887Z" fill="black"/>
<path d="M10.5 10.8887H12V12.4442H10.5V10.8887Z" fill="black"/>
<path d="M15 10.8887H16.5V12.4442H15V10.8887Z" fill="black"/>
<path d="M19.5 10.8887H21V12.4442H19.5V10.8887Z" fill="black"/>
<path d="M6 14.7778H7.5V16.3334H6V14.7778Z" fill="black"/>
<path d="M10.5 14.7778H12V16.3334H10.5V14.7778Z" fill="black"/>
<path d="M15 14.7778H16.5V16.3334H15V14.7778Z" fill="black"/>
<path d="M19.5 14.7778H21V16.3334H19.5V14.7778Z" fill="black"/>
<path d="M6 18.6665H7.5V20.2221H6V18.6665Z" fill="black"/>
<path d="M10.5 18.6665H12V20.2221H10.5V18.6665Z" fill="black"/>
<path d="M15 18.6665H16.5V20.2221H15V18.6665Z" fill="black"/>
<path d="M19.5 18.6665H21V20.2221H19.5V18.6665Z" fill="black"/>
<path d="M7.5 7.77789C7.69891 7.77789 7.88968 7.69594 8.03033 7.55008C8.17098 7.40422 8.25 7.20639 8.25 7.00011V2.33344C8.25 2.12716 8.17098 1.92933 8.03033 1.78347C7.88968 1.63761 7.69891 1.55566 7.5 1.55566C7.30109 1.55566 7.11032 1.63761 6.96967 1.78347C6.82902 1.92933 6.75 2.12716 6.75 2.33344V7.00011C6.75 7.20639 6.82902 7.40422 6.96967 7.55008C7.11032 7.69594 7.30109 7.77789 7.5 7.77789Z" fill="black"/>
<path d="M19.5 7.77789C19.6989 7.77789 19.8897 7.69594 20.0303 7.55008C20.171 7.40422 20.25 7.20639 20.25 7.00011V2.33344C20.25 2.12716 20.171 1.92933 20.0303 1.78347C19.8897 1.63761 19.6989 1.55566 19.5 1.55566C19.3011 1.55566 19.1103 1.63761 18.9697 1.78347C18.829 1.92933 18.75 2.12716 18.75 2.33344V7.00011C18.75 7.20639 18.829 7.40422 18.9697 7.55008C19.1103 7.69594 19.3011 7.77789 19.5 7.77789Z" fill="black"/>
<path d="M9.75 4.6665H17.25V6.22206H9.75V4.6665Z" fill="black"/>
</svg>
