<svg width="26" height="28" viewBox="0 0 26 28" fill="none" xmlns="http://www.w3.org/2000/svg">
<path d="M9.75001 24.8889C10.7472 24.8889 11.5556 24.0183 11.5556 22.9444C11.5556 21.8706 10.7472 21 9.75001 21C8.75283 21 7.94446 21.8706 7.94446 22.9444C7.94446 24.0183 8.75283 24.8889 9.75001 24.8889Z" fill="#5C5C5C"/>
<path d="M19.1389 24.8889C20.1361 24.8889 20.9445 24.0183 20.9445 22.9444C20.9445 21.8706 20.1361 21 19.1389 21C18.1417 21 17.3334 21.8706 17.3334 22.9444C17.3334 24.0183 18.1417 24.8889 19.1389 24.8889Z" fill="#5C5C5C"/>
<path d="M23.9055 4.97024C23.8382 4.87611 23.7518 4.79984 23.6529 4.74726C23.554 4.69468 23.4452 4.66719 23.3349 4.6669H6.6516L6.3266 3.55468C6.2909 3.43526 6.22891 3.32691 6.14591 3.23888C6.0629 3.15085 5.96136 3.08575 5.84994 3.04913L2.88883 2.06913C2.79778 2.039 2.70211 2.02847 2.60728 2.03816C2.51246 2.04784 2.42033 2.07755 2.33616 2.12558C2.16618 2.22258 2.03894 2.38832 1.98244 2.58635C1.92593 2.78438 1.94479 2.99847 2.03486 3.18152C2.12493 3.36458 2.27883 3.50161 2.46272 3.56246L5.05549 4.41802L8.36327 15.6725L7.18605 16.7147L7.09216 16.8158C6.80103 17.1788 6.63609 17.6395 6.62555 18.1191C6.61501 18.5986 6.75953 19.0672 7.03438 19.4447C7.23123 19.7025 7.48137 19.9071 7.76479 20.0422C8.04822 20.1772 8.35705 20.239 8.6666 20.2225H20.7205C20.912 20.2225 21.0957 20.1405 21.2312 19.9947C21.3666 19.8488 21.4427 19.651 21.4427 19.4447C21.4427 19.2384 21.3666 19.0406 21.2312 18.8947C21.0957 18.7488 20.912 18.6669 20.7205 18.6669H8.55105C8.46788 18.6638 8.38685 18.6377 8.31579 18.5911C8.24473 18.5445 8.18603 18.4789 8.14537 18.4007C8.10471 18.3225 8.08347 18.2344 8.08368 18.1447C8.0839 18.0551 8.10557 17.9671 8.1466 17.8891L9.88716 16.3336H21.031C21.196 16.3387 21.3577 16.2829 21.4891 16.1754C21.6205 16.0678 21.7137 15.915 21.7533 15.7425L24.0644 5.63135C24.0863 5.5154 24.0835 5.39557 24.0559 5.28101C24.0284 5.16644 23.9769 5.06015 23.9055 4.97024Z" fill="#5C5C5C"/>
</svg>
