<svg width="27" height="28" viewBox="0 0 27 28" fill="none" xmlns="http://www.w3.org/2000/svg">
<g clip-path="url(#clip0)">
<path d="M25.875 2.33325H1.125C0.826631 2.33325 0.540483 2.45617 0.329505 2.67496C0.118526 2.89375 0 3.1905 0 3.49992L0 24.4999C0 24.8093 0.118526 25.1061 0.329505 25.3249C0.540483 25.5437 0.826631 25.6666 1.125 25.6666H25.875C26.1734 25.6666 26.4595 25.5437 26.6705 25.3249C26.8815 25.1061 27 24.8093 27 24.4999V3.49992C27 3.1905 26.8815 2.89375 26.6705 2.67496C26.4595 2.45617 26.1734 2.33325 25.875 2.33325ZM24.75 23.3333H22.5V22.1666H16.875V23.3333H2.25V4.66659H24.75V23.3333ZM11.5763 11.3283C11.5763 10.7991 11.7789 10.2917 12.1397 9.91757C12.5005 9.54344 12.9898 9.33325 13.5 9.33325C14.5688 9.33325 15.4237 10.2316 15.4237 11.3283C15.4237 12.4366 14.5688 13.3349 13.5 13.3349C12.4312 13.3349 11.5763 12.4366 11.5763 11.3283ZM6.42375 13.1716C6.42375 12.3433 7.07625 11.6666 7.875 11.6666C8.2599 11.6666 8.62903 11.8251 8.90119 12.1074C9.17335 12.3896 9.32625 12.7724 9.32625 13.1716C9.32625 13.9999 8.67375 14.6649 7.875 14.6649C7.07625 14.6649 6.42375 13.9999 6.42375 13.1716ZM17.6737 13.1716C17.6737 12.7724 17.8266 12.3896 18.0988 12.1074C18.371 11.8251 18.7401 11.6666 19.125 11.6666C19.5099 11.6666 19.879 11.8251 20.1512 12.1074C20.4234 12.3896 20.5763 12.7724 20.5763 13.1716C20.5763 13.9999 19.9237 14.6649 19.125 14.6649C18.3263 14.6649 17.6737 13.9999 17.6737 13.1716ZM22.5 17.6633V18.6666H4.5V17.6633C4.5 16.5666 6.24375 15.6683 7.875 15.6683C8.49375 15.6683 9.12375 15.7966 9.675 16.0183C10.5188 15.2133 12.0375 14.6649 13.5 14.6649C14.9625 14.6649 16.4812 15.2133 17.325 16.0183C17.8762 15.7966 18.5063 15.6683 19.125 15.6683C20.7563 15.6683 22.5 16.5666 22.5 17.6633Z" fill="#5C5C5C"/>
</g>
<defs>
<clipPath id="clip0">
<rect width="27" height="28" fill="white"/>
</clipPath>
</defs>
</svg>
