<svg width="25" height="28" viewBox="0 0 25 28" fill="none" xmlns="http://www.w3.org/2000/svg">
<path d="M3.125 17.5V19.25H6.70781L1.5625 25.0128L2.66719 26.25L7.8125 20.4872V24.5H9.375V17.5H3.125Z" fill="#4B4996"/>
<path d="M18.75 18.375H20.3125V22.75H18.75V18.375Z" fill="#4B4996"/>
<path d="M15.625 14H17.1875V22.75H15.625V14Z" fill="#4B4996"/>
<path d="M12.5 15.75H14.0625V22.75H12.5V15.75Z" fill="#4B4996"/>
<path d="M21.875 1.75H3.125C2.71073 1.75046 2.31354 1.93499 2.0206 2.26307C1.72767 2.59116 1.56291 3.03601 1.5625 3.5V14H3.125V11.375H21.8758L21.8766 24.5H12.5V26.25H21.875C22.2892 26.2493 22.6863 26.0647 22.9792 25.7367C23.2721 25.4086 23.4369 24.9639 23.4375 24.5V3.5C23.4371 3.03601 23.2723 2.59116 22.9794 2.26307C22.6865 1.93499 22.2893 1.75046 21.875 1.75ZM9.375 9.625H3.125V3.5H9.375V9.625ZM10.9375 9.625V3.5H21.875V9.625H10.9375Z" fill="#4B4996"/>
</svg>
