<svg width="22" height="28" viewBox="0 0 22 28" fill="none" xmlns="http://www.w3.org/2000/svg">
<path d="M1.375 28H20.625C21.3831 28 22 27.4111 22 26.6875V8.3125C22 8.29762 21.9927 8.28537 21.9917 8.27137C21.9899 8.25125 21.9844 8.23375 21.9798 8.2145C21.9654 8.15371 21.9373 8.09667 21.8973 8.04737C21.8909 8.0395 21.8918 8.02987 21.8854 8.022L14.5521 0.147C14.5493 0.144375 14.5457 0.144375 14.5429 0.14175C14.487 0.0859341 14.4164 0.0454466 14.3385 0.0245C14.3211 0.01925 14.3055 0.0175 14.2872 0.014875C14.2606 0.0105 14.2358 0 14.2083 0H1.375C0.616917 0 0 0.588875 0 1.3125V26.6875C0 27.4111 0.616917 28 1.375 28ZM14.6667 1.58812L20.5214 7.875H15.125C14.9233 7.875 14.6667 7.5075 14.6667 7.21875V1.58812ZM0.916667 1.3125C0.916667 1.19647 0.964955 1.08519 1.05091 1.00314C1.13686 0.921094 1.25344 0.875 1.375 0.875H13.75V7.21875C13.75 7.92663 14.3504 8.75 15.125 8.75H21.0833V26.6875C21.0833 26.8035 21.035 26.9148 20.9491 26.9969C20.8631 27.0789 20.7466 27.125 20.625 27.125H1.375C1.11833 27.125 0.916667 26.9325 0.916667 26.6875V1.3125Z" fill="black"/>
<path d="M5.04171 12.25H16.9584C17.0799 12.25 17.1965 12.2039 17.2825 12.1219C17.3684 12.0398 17.4167 11.9285 17.4167 11.8125C17.4167 11.6965 17.3684 11.5852 17.2825 11.5031C17.1965 11.4211 17.0799 11.375 16.9584 11.375H5.04171C4.92015 11.375 4.80357 11.4211 4.71762 11.5031C4.63166 11.5852 4.58337 11.6965 4.58337 11.8125C4.58337 11.9285 4.63166 12.0398 4.71762 12.1219C4.80357 12.2039 4.92015 12.25 5.04171 12.25Z" fill="black"/>
<path d="M5.04171 15.75H16.9584C17.0799 15.75 17.1965 15.7039 17.2825 15.6219C17.3684 15.5398 17.4167 15.4285 17.4167 15.3125C17.4167 15.1965 17.3684 15.0852 17.2825 15.0031C17.1965 14.9211 17.0799 14.875 16.9584 14.875H5.04171C4.92015 14.875 4.80357 14.9211 4.71762 15.0031C4.63166 15.0852 4.58337 15.1965 4.58337 15.3125C4.58337 15.4285 4.63166 15.5398 4.71762 15.6219C4.80357 15.7039 4.92015 15.75 5.04171 15.75Z" fill="black"/>
<path d="M5.04171 8.75H10.5417C10.6633 8.75 10.7798 8.70391 10.8658 8.62186C10.9518 8.53981 11 8.42853 11 8.3125C11 8.19647 10.9518 8.08519 10.8658 8.00314C10.7798 7.92109 10.6633 7.875 10.5417 7.875H5.04171C4.92015 7.875 4.80357 7.92109 4.71762 8.00314C4.63166 8.08519 4.58337 8.19647 4.58337 8.3125C4.58337 8.42853 4.63166 8.53981 4.71762 8.62186C4.80357 8.70391 4.92015 8.75 5.04171 8.75Z" fill="black"/>
<path d="M5.04171 19.25H16.9584C17.0799 19.25 17.1965 19.2039 17.2825 19.1219C17.3684 19.0398 17.4167 18.9285 17.4167 18.8125C17.4167 18.6965 17.3684 18.5852 17.2825 18.5031C17.1965 18.4211 17.0799 18.375 16.9584 18.375H5.04171C4.92015 18.375 4.80357 18.4211 4.71762 18.5031C4.63166 18.5852 4.58337 18.6965 4.58337 18.8125C4.58337 18.9285 4.63166 19.0398 4.71762 19.1219C4.80357 19.2039 4.92015 19.25 5.04171 19.25Z" fill="black"/>
<path d="M5.04171 22.75H16.9584C17.0799 22.75 17.1965 22.7039 17.2825 22.6219C17.3684 22.5398 17.4167 22.4285 17.4167 22.3125C17.4167 22.1965 17.3684 22.0852 17.2825 22.0031C17.1965 21.9211 17.0799 21.875 16.9584 21.875H5.04171C4.92015 21.875 4.80357 21.9211 4.71762 22.0031C4.63166 22.0852 4.58337 22.1965 4.58337 22.3125C4.58337 22.4285 4.63166 22.5398 4.71762 22.6219C4.80357 22.7039 4.92015 22.75 5.04171 22.75Z" fill="black"/>
</svg>
