<svg width="26" height="28" viewBox="0 0 26 28" fill="none" xmlns="http://www.w3.org/2000/svg">
<g clip-path="url(#clip0)">
<path opacity="0.3" d="M7.583 14.3149V18.6549L12.9997 21.8399L18.4163 18.6549V14.3149L12.9997 17.4999L7.583 14.3149ZM5.61133 10.4999L12.9997 14.8399L20.388 10.4999L12.9997 6.15991L5.61133 10.4999Z" fill="black"/>
<path d="M14.084 3.5L1.08398 12.1667L5.81126 15.3156V23.9822L14.084 29.5L22.3567 23.9822V15.3156L24.7203 13.7411V23.7222H27.084V12.1667L14.084 3.5ZM19.9931 22.2633L14.084 26.2067L8.17489 22.2633V16.89L14.084 20.8333L19.9931 16.89V22.2633ZM14.084 17.54L6.02398 12.1667L14.084 6.79333L22.144 12.1667L14.084 17.54Z" fill="black"/>
</g>
<defs>
<clipPath id="clip0">
<rect width="26" height="28" fill="white"/>
</clipPath>
</defs>
</svg>
