<svg width="26" height="28" viewBox="0 0 26 28" fill="none" xmlns="http://www.w3.org/2000/svg">
<path d="M4.875 26.25H14.625C15.0558 26.2495 15.4689 26.065 15.7736 25.7369C16.0782 25.4088 16.2496 24.964 16.25 24.5V21.875H14.625V24.5H4.875V3.5H14.625V6.125H16.25V3.5C16.2496 3.03601 16.0782 2.59116 15.7736 2.26307C15.4689 1.93499 15.0558 1.75046 14.625 1.75H4.875C4.44416 1.75046 4.03108 1.93499 3.72643 2.26307C3.42177 2.59116 3.25043 3.03601 3.25 3.5V24.5C3.25043 24.964 3.42177 25.4088 3.72643 25.7369C4.03108 26.065 4.44416 26.2495 4.875 26.25Z" fill="black"/>
<path d="M16.7261 18.0128L19.6398 14.875H8.125V13.125H19.6398L16.7261 9.98725L17.875 8.75L22.75 14L17.875 19.25L16.7261 18.0128Z" fill="black"/>
</svg>
