<svg width="26" height="28" viewBox="0 0 26 28" fill="none" xmlns="http://www.w3.org/2000/svg">
<path d="M21.125 14.5128V12.25H19.5V14.875C19.5 15.107 19.5857 15.3296 19.7381 15.4936L21.9375 17.8622V19.25H4.0625V17.8622L6.26194 15.4936C6.41432 15.3296 6.49995 15.107 6.5 14.875V11.375C6.49774 10.1454 6.79681 8.93702 7.36701 7.87178C7.93721 6.80654 8.75835 5.9222 9.74748 5.30811C10.7366 4.69401 11.8587 4.37189 13.0004 4.37428C14.1422 4.37668 15.2631 4.7035 16.25 5.32175V3.36612C15.4766 2.99733 14.654 2.76227 13.8125 2.66963V0.875H12.1875V2.66875C10.1843 2.88832 8.32793 3.89998 6.97724 5.50811C5.62654 7.11624 4.87752 9.20661 4.875 11.375V14.5128L2.67556 16.8814C2.52318 17.0454 2.43755 17.268 2.4375 17.5V20.125C2.4375 20.3571 2.5231 20.5796 2.67548 20.7437C2.82785 20.9078 3.03451 21 3.25 21H8.9375V21.875C8.9375 23.0353 9.36551 24.1481 10.1274 24.9686C10.8892 25.7891 11.9226 26.25 13 26.25C14.0774 26.25 15.1108 25.7891 15.8726 24.9686C16.6345 24.1481 17.0625 23.0353 17.0625 21.875V21H22.75C22.9655 21 23.1722 20.9078 23.3245 20.7437C23.4769 20.5796 23.5625 20.3571 23.5625 20.125V17.5C23.5625 17.268 23.4768 17.0454 23.3244 16.8814L21.125 14.5128ZM15.4375 21.875C15.4375 22.5712 15.1807 23.2389 14.7236 23.7312C14.2665 24.2234 13.6465 24.5 13 24.5C12.3535 24.5 11.7335 24.2234 11.2764 23.7312C10.8193 23.2389 10.5625 22.5712 10.5625 21.875V21H15.4375V21.875Z" fill="#5C5C5C"/>
<path d="M21.125 10.5C22.9199 10.5 24.375 8.933 24.375 7C24.375 5.067 22.9199 3.5 21.125 3.5C19.3301 3.5 17.875 5.067 17.875 7C17.875 8.933 19.3301 10.5 21.125 10.5Z" fill="#5C5C5C"/>
</svg>
