<svg width="26" height="28" viewBox="0 0 26 28" fill="none" xmlns="http://www.w3.org/2000/svg">
<path fill-rule="evenodd" clip-rule="evenodd" d="M17.3334 10.5002C17.3334 11.7378 16.8769 12.9248 16.0642 13.8C15.2516 14.6752 14.1494 15.1668 13.0001 15.1668C11.8508 15.1668 10.7486 14.6752 9.93595 13.8C9.12329 12.9248 8.66675 11.7378 8.66675 10.5002C8.66675 9.26249 9.12329 8.0755 9.93595 7.20033C10.7486 6.32516 11.8508 5.8335 13.0001 5.8335C14.1494 5.8335 15.2516 6.32516 16.0642 7.20033C16.8769 8.0755 17.3334 9.26249 17.3334 10.5002ZM15.1667 10.5002C15.1667 11.119 14.9385 11.7125 14.5321 12.1501C14.1258 12.5877 13.5747 12.8335 13.0001 12.8335C12.4254 12.8335 11.8743 12.5877 11.468 12.1501C11.0617 11.7125 10.8334 11.119 10.8334 10.5002C10.8334 9.88133 11.0617 9.28783 11.468 8.85025C11.8743 8.41266 12.4254 8.16683 13.0001 8.16683C13.5747 8.16683 14.1258 8.41266 14.5321 8.85025C14.9385 9.28783 15.1667 9.88133 15.1667 10.5002Z" fill="#5C5C5C"/>
<path fill-rule="evenodd" clip-rule="evenodd" d="M13 1.16675C6.41879 1.16675 1.08337 6.91258 1.08337 14.0001C1.08337 21.0876 6.41879 26.8334 13 26.8334C19.5813 26.8334 24.9167 21.0876 24.9167 14.0001C24.9167 6.91258 19.5813 1.16675 13 1.16675ZM3.25004 14.0001C3.25004 16.4384 4.02246 18.6831 5.31704 20.4657C6.22621 19.18 7.3991 18.1379 8.74409 17.4211C10.0891 16.7043 11.5698 16.332 13.0705 16.3334C14.5517 16.3319 16.0138 16.6945 17.3452 17.3937C18.6766 18.0928 19.8423 19.11 20.7535 20.3677C21.6921 19.0419 22.3241 17.4945 22.5972 15.8534C22.8702 14.2124 22.7765 12.5249 22.3237 10.9306C21.871 9.33625 21.0722 7.88097 19.9935 6.68512C18.9148 5.48928 17.5871 4.58725 16.1205 4.05367C14.6538 3.5201 13.0902 3.37031 11.5591 3.61672C10.0279 3.86312 8.57331 4.49862 7.31554 5.47064C6.05777 6.44267 5.033 7.72326 4.32604 9.20647C3.61907 10.6897 3.25024 12.3329 3.25004 14.0001ZM13 24.5001C10.7618 24.5037 8.59116 23.6745 6.85537 22.1527C7.55405 21.0756 8.48399 20.1961 9.56608 19.5892C10.6482 18.9823 11.8504 18.6658 13.0705 18.6667C14.2753 18.6657 15.463 18.9742 16.5349 19.5667C17.6068 20.1592 18.5319 21.0186 19.2335 22.0734C17.4843 23.6446 15.2778 24.5035 13 24.5001Z" fill="#5C5C5C"/>
</svg>
