<svg width="27" height="28" viewBox="0 0 27 28" fill="none" xmlns="http://www.w3.org/2000/svg">
<path d="M10.9688 1.75V5.25L9.28125 6.125L6.75 3.5L3.375 7L5.90625 9.625L5.0625 11.375H1.6875V16.625H5.0625L5.90625 18.375L3.375 21L6.75 24.5L9.28125 21.875L10.9688 22.75V26.25H16.0312V22.75L17.7188 21.875L20.25 24.5L23.625 21L21.0938 18.375L21.9375 16.625H25.3125V11.375H21.9375L21.0938 9.625L23.625 7L20.25 3.5L17.7188 6.125L16.0312 5.25V1.75H10.9688Z" stroke="black" stroke-linecap="round" stroke-linejoin="round"/>
<path d="M13.5 17.5C15.364 17.5 16.875 15.933 16.875 14C16.875 12.067 15.364 10.5 13.5 10.5C11.636 10.5 10.125 12.067 10.125 14C10.125 15.933 11.636 17.5 13.5 17.5Z" stroke="black" stroke-linecap="round" stroke-linejoin="round"/>
</svg>
