<svg width="28" height="28" viewBox="0 0 28 28" fill="none" xmlns="http://www.w3.org/2000/svg">
<path d="M25.2961 17.2977L21.7773 14.9953L23.1321 12.5115C23.4589 11.8913 23.6301 11.201 23.631 10.5V6.56251C23.6337 5.45536 23.313 4.37153 22.7084 3.44408C22.1037 2.51664 21.2413 1.78596 20.2272 1.34178C19.2131 0.897601 18.0913 0.759249 16.9996 0.943715C15.908 1.12818 14.8939 1.62743 14.082 2.38017L15.2714 3.66407C15.8339 3.14392 16.5361 2.79923 17.2917 2.67226C18.0472 2.54529 18.8235 2.64155 19.5251 2.94925C20.2268 3.25696 20.8235 3.76272 21.2419 4.40453C21.6604 5.04635 21.8825 5.79632 21.881 6.56251V10.5C21.8808 10.9082 21.783 11.3104 21.5958 11.6732L19.4675 15.575L24.3379 18.7619C24.6594 18.9723 24.9232 19.2597 25.1054 19.598C25.2875 19.9363 25.3823 20.3147 25.381 20.699V23.625H21.4435V25.375H27.131V20.6989C27.1327 20.024 26.9658 19.3593 26.6454 18.7653C26.3249 18.1713 25.8611 17.6668 25.2961 17.2977Z" fill="black"/>
<path d="M17.4202 19.0477L13.9015 16.7453L15.2562 14.2615C15.583 13.6413 15.7542 12.951 15.7551 12.25V8.3125C15.754 6.80326 15.1542 5.35608 14.0874 4.28846C13.0206 3.22085 11.5739 2.61998 10.0647 2.61768C6.93016 2.61768 4.38009 5.1724 4.38009 8.3125V12.25C4.37675 12.9507 4.54607 13.6414 4.87309 14.2611L6.23525 16.7584L2.73695 19.0477C2.17258 19.4162 1.70918 19.9199 1.3888 20.513C1.06843 21.106 0.901216 21.7697 0.902344 22.4438L0.875 27.125H19.2551V22.4489C19.2568 21.774 19.0899 21.1093 18.7695 20.5153C18.449 19.9213 17.9852 19.4168 17.4202 19.0477ZM17.5051 25.375H2.63517L2.65212 22.4489C2.6508 22.0647 2.74553 21.6862 2.92769 21.3479C3.10985 21.0096 3.37368 20.7222 3.69518 20.5118L8.54498 17.3383L6.40937 13.4232C6.22424 13.0599 6.12849 12.6577 6.13009 12.25V8.3125C6.13009 7.26821 6.54493 6.2667 7.28335 5.52827C8.02178 4.78985 9.0233 4.375 10.0676 4.375C11.1119 4.375 12.1134 4.78985 12.8518 5.52827C13.5902 6.2667 14.0051 7.26821 14.0051 8.3125V12.25C14.0049 12.6582 13.9071 13.0604 13.7199 13.4232L11.5917 17.325L16.462 20.5119C16.7835 20.7223 17.0473 21.0097 17.2295 21.348C17.4117 21.6863 17.5064 22.0647 17.5051 22.4489V25.375Z" fill="black"/>
</svg>
