<svg width="26" height="28" viewBox="0 0 26 28" fill="none" xmlns="http://www.w3.org/2000/svg">
<path d="M19.8121 22.8683C19.8121 22.8683 20.5343 17.4238 16.201 17.4238C15.0483 18.2514 14.061 18.8231 12.951 18.8207H12.9961C11.886 18.8231 10.8988 18.2514 9.74609 17.4238C5.41276 17.4238 6.13498 22.8683 6.13498 22.8683" fill="#3F3F3F"/>
<path d="M16.297 4.72716L12.935 5.08105L9.65976 4.73883L7.69531 4.53272L12.7075 3.54883L18.1711 4.53272L16.297 4.72716Z" fill="#9B9B9A"/>
<path d="M16.2974 4.72705V7.8265C16.2974 7.8265 13.8707 7.72538 12.9788 8.85316C12.0868 7.72538 9.66016 7.8265 9.66016 7.8265V4.73872L12.9354 5.08094L16.2974 4.72705Z" fill="#3F3F3F"/>
<path d="M12.989 19.9812H12.9496C11.7948 19.9691 10.788 19.4118 9.54504 18.5189C9.50467 18.4911 9.46987 18.4548 9.44266 18.4123C9.41546 18.3698 9.39638 18.3218 9.38656 18.2713C9.37674 18.2207 9.37637 18.1686 9.38546 18.1179C9.39455 18.0672 9.41293 18.0189 9.43953 17.976C9.46612 17.933 9.5004 17.8961 9.54035 17.8676C9.58031 17.839 9.62515 17.8193 9.67225 17.8096C9.71935 17.8 9.76777 17.8005 9.81469 17.8111C9.8616 17.8218 9.90608 17.8425 9.94551 17.8718C11.0841 18.6897 11.9894 19.1979 12.9727 19.2038C13.9556 19.1983 14.8606 18.6897 15.9999 17.8718C16.0393 17.8425 16.0838 17.8218 16.1307 17.8111C16.1776 17.8005 16.2261 17.8 16.2732 17.8096C16.3203 17.8193 16.3651 17.839 16.4051 17.8676C16.445 17.8961 16.4793 17.933 16.5059 17.976C16.5325 18.0189 16.5509 18.0672 16.5599 18.1179C16.569 18.1686 16.5687 18.2207 16.5588 18.2713C16.549 18.3218 16.5299 18.3698 16.5027 18.4123C16.4755 18.4548 16.4407 18.4911 16.4004 18.5189C15.1571 19.4118 14.1503 19.9691 12.9958 19.9812H12.9886H12.989Z" fill="white"/>
<path d="M9.59723 7.81592C9.34098 8.30379 9.14804 8.82717 9.02378 9.37147L9.01367 9.39831C9.01367 9.39831 10.4509 9.7032 11.8885 8.20092L11.9015 8.16125C10.8655 7.77392 9.61456 7.82681 9.61456 7.82681" fill="black"/>
<path d="M16.2547 7.82642C16.2547 7.82642 15.0241 7.74825 13.9707 8.17836L13.9808 8.20092C15.418 9.7032 16.8553 9.39831 16.8553 9.39831L16.8516 9.39908C16.7276 8.84494 16.5326 8.3121 16.2721 7.81592" fill="black"/>
<path d="M16.806 9.40583C16.5517 9.44239 15.2676 9.54661 13.9799 8.20066L13.9698 8.17811L13.9777 8.175C13.5841 8.32666 13.223 8.54327 12.9782 8.85283C12.231 7.90783 10.4128 7.82616 9.84121 7.82422C10.2482 7.8285 11.1333 7.87361 11.9013 8.161L11.8883 8.20066C10.601 9.54622 9.31652 9.44239 9.06229 9.40583C8.9139 9.98774 8.83907 10.5885 8.83985 11.192C8.83985 14.2358 10.6728 16.7037 12.9341 16.7037C15.1954 16.7037 17.0288 14.2358 17.0288 11.192C17.0288 10.5659 16.9493 9.96583 16.806 9.40583Z" fill="#6A462F"/>
<path d="M15.1444 10.481C15.1443 10.6874 15.0682 10.8853 14.9326 11.0312C14.7971 11.1771 14.6133 11.259 14.4216 11.259C14.23 11.2589 14.0462 11.1769 13.9107 11.0309C13.7753 10.8849 13.6992 10.687 13.6992 10.4806C13.6993 10.2742 13.7754 10.0763 13.911 9.93042C14.0465 9.78452 14.2303 9.70259 14.422 9.70264C14.6136 9.70269 14.7974 9.78472 14.9329 9.93069C15.0684 10.0767 15.1444 10.2746 15.1444 10.481Z" fill="black"/>
<path d="M12.2557 10.481C12.2557 10.6874 12.1795 10.8853 12.0439 11.0312C11.9084 11.1771 11.7246 11.259 11.5329 11.259C11.3413 11.2589 11.1575 11.1769 11.0221 11.0309C10.8866 10.8849 10.8105 10.687 10.8105 10.4806C10.8106 10.3784 10.8293 10.2772 10.8656 10.1828C10.902 10.0884 10.9552 10.0027 11.0223 9.93042C11.0894 9.85818 11.1691 9.80088 11.2568 9.7618C11.3445 9.72271 11.4384 9.70261 11.5333 9.70264C11.6282 9.70266 11.7222 9.72282 11.8098 9.76195C11.8975 9.80108 11.9771 9.85842 12.0442 9.93069C12.1113 10.003 12.1645 10.0888 12.2008 10.1832C12.2371 10.2776 12.2557 10.3788 12.2557 10.481Z" fill="black"/>
<path d="M12.9777 14.3712C12.5621 14.3712 12.1461 14.2599 11.7329 14.0375C11.6905 14.0146 11.6527 13.983 11.6216 13.9444C11.5905 13.9058 11.5668 13.861 11.5517 13.8125C11.5367 13.764 11.5307 13.7128 11.5341 13.6618C11.5375 13.6109 11.5501 13.5611 11.5714 13.5154C11.5926 13.4697 11.6219 13.4289 11.6578 13.3955C11.6936 13.362 11.7353 13.3364 11.7803 13.3203C11.8253 13.3041 11.8728 13.2976 11.9202 13.3013C11.9675 13.3049 12.0137 13.3185 12.0561 13.3414C12.6762 13.6758 13.2792 13.6758 13.8996 13.3414C13.9853 13.2952 14.0846 13.2876 14.1755 13.3203C14.2664 13.3529 14.3415 13.4231 14.3844 13.5154C14.4273 13.6077 14.4343 13.7146 14.404 13.8125C14.3737 13.9104 14.3085 13.9913 14.2228 14.0375C13.8097 14.2599 13.3937 14.3712 12.9777 14.3712Z" fill="black"/>
<path d="M16.6573 7.68852C16.4515 7.28796 16.2095 6.9224 15.9351 6.60352V7.43963C15.8557 7.43963 15.7618 7.44352 15.6607 7.45129C15.8268 7.68463 15.9748 7.94129 16.1048 8.21352C16.4876 9.01852 16.7115 9.97907 16.7115 11.0096C16.7115 13.8368 15.0359 16.1352 12.9776 16.1352C10.9193 16.1352 9.24371 13.8368 9.24371 11.0096C9.24371 9.97518 9.4676 9.01463 9.85398 8.20963C9.98398 7.9374 10.132 7.68463 10.2945 7.45129C10.1934 7.44352 10.0995 7.43963 10.0201 7.43963V6.60352C9.74926 6.9224 9.50371 7.28796 9.29787 7.68852C8.80676 8.63352 8.52148 9.77685 8.52148 11.0096C8.52148 14.2646 10.522 16.913 12.9776 16.913C15.4368 16.913 17.4337 14.2646 17.4337 11.0096C17.4337 9.77685 17.1484 8.63352 16.6573 7.68852Z" fill="black"/>
<path d="M7.69531 4.53271L9.65976 4.73883L12.935 5.08105L16.297 4.72716L18.1711 4.53271" stroke="black" stroke-width="0.5" stroke-miterlimit="10" stroke-linecap="round" stroke-linejoin="round"/>
<path d="M13.2655 9.08877C13.2583 9.09266 13.2547 9.10044 13.251 9.10433C13.2041 9.16655 13.1463 9.20544 13.0813 9.22488C13.0669 9.23266 13.0524 9.23655 13.038 9.23655C13.0163 9.24433 12.9983 9.24433 12.9766 9.24433C12.9549 9.24433 12.9333 9.24433 12.9152 9.23655C12.9008 9.23655 12.8863 9.23266 12.8719 9.22488C12.8239 9.21131 12.7794 9.18603 12.7419 9.151C12.7211 9.13322 12.7028 9.11225 12.6877 9.08877C12.0919 8.36544 10.5752 8.21377 9.85299 8.20989C9.78438 8.20989 9.72299 8.21377 9.67243 8.21377C9.62416 8.21664 9.57585 8.20879 9.53051 8.19073C9.48516 8.17267 9.44375 8.14477 9.40882 8.10877C9.37348 8.07274 9.34532 8.02933 9.32608 7.98119C9.30683 7.93305 9.29689 7.88119 9.29688 7.82877V4.53488C9.29688 4.31711 9.45937 4.146 9.65799 4.146C9.8566 4.146 10.0191 4.31711 10.0191 4.53488V7.43988C10.0985 7.43988 10.1924 7.44377 10.2935 7.45155C11.0302 7.49822 12.2291 7.67322 12.9766 8.32266C13.0777 8.40433 13.168 8.49766 13.251 8.60266C13.363 8.74266 13.3666 8.94489 13.2655 9.08877Z" fill="black"/>
<path d="M16.6567 4.53488V7.82877C16.6567 7.93377 16.617 8.03488 16.5484 8.10877C16.4761 8.17877 16.3895 8.21766 16.2811 8.21766C16.2306 8.21377 16.1692 8.21377 16.1042 8.21377C15.3784 8.21377 13.8581 8.36155 13.2659 9.08877C13.2586 9.09266 13.255 9.10044 13.2514 9.10433C13.2045 9.16655 13.1467 9.20544 13.0817 9.22488C13.0672 9.23266 13.0528 9.23655 13.0384 9.23655C13.0167 9.24433 12.9986 9.24433 12.977 9.24433C12.9553 9.24433 12.9336 9.24433 12.9156 9.23655C12.9011 9.23655 12.8867 9.23266 12.8722 9.22488C12.8242 9.21131 12.7798 9.18603 12.7422 9.151C12.7215 9.13322 12.7032 9.11225 12.6881 9.08877C12.6384 9.01822 12.6128 8.93144 12.6154 8.84297C12.618 8.75449 12.6488 8.66966 12.7025 8.60266C12.7856 8.49766 12.8759 8.40433 12.977 8.32266C13.7245 7.67322 14.9234 7.49822 15.66 7.45155C15.7611 7.44377 15.855 7.43988 15.9345 7.43988V4.53488C15.9345 4.31711 16.097 4.146 16.2956 4.146C16.4942 4.146 16.6567 4.31711 16.6567 4.53488Z" fill="black"/>
<path d="M18.1711 4.53272L12.7075 3.54883L7.69531 4.53272" stroke="black" stroke-width="0.5" stroke-miterlimit="10" stroke-linecap="round" stroke-linejoin="round"/>
<path d="M7.6951 8.167C7.59932 8.167 7.50747 8.12603 7.43975 8.0531C7.37203 7.98017 7.33398 7.88125 7.33398 7.77811V4.62033C7.33398 4.51719 7.37203 4.41828 7.43975 4.34535C7.50747 4.27242 7.59932 4.23145 7.6951 4.23145C7.79087 4.23145 7.88272 4.27242 7.95044 4.34535C8.01816 4.41828 8.05621 4.51719 8.05621 4.62033V7.77811C8.05621 7.88125 8.01816 7.98017 7.95044 8.0531C7.88272 8.12603 7.79087 8.167 7.6951 8.167Z" fill="black"/>
<path d="M6.96263 9.17037C6.89485 9.17044 6.82842 9.14993 6.77096 9.11122C6.7135 9.0725 6.66733 9.01713 6.63775 8.95145C6.60816 8.88578 6.59635 8.81246 6.60368 8.73989C6.611 8.66732 6.63716 8.59844 6.67916 8.54115L7.41077 7.53782C7.46996 7.4567 7.55664 7.40422 7.65176 7.39193C7.74687 7.37964 7.84263 7.40855 7.91795 7.47229C7.99328 7.53603 8.042 7.62938 8.05342 7.73181C8.06483 7.83424 8.03799 7.93736 7.9788 8.01848L7.24683 9.02182C7.21304 9.06819 7.16989 9.10567 7.12065 9.13141C7.07141 9.15715 7.01737 9.17048 6.96263 9.17037Z" fill="black"/>
<path d="M7.6951 9.76187C7.59932 9.76187 7.50747 9.7209 7.43975 9.64797C7.37203 9.57504 7.33398 9.47612 7.33398 9.37298V7.77854C7.33398 7.6754 7.37203 7.57648 7.43975 7.50355C7.50747 7.43062 7.59932 7.38965 7.6951 7.38965C7.79087 7.38965 7.88272 7.43062 7.95044 7.50355C8.01816 7.57648 8.05621 7.6754 8.05621 7.77854V9.37298C8.05621 9.47612 8.01816 9.57504 7.95044 9.64797C7.88272 9.7209 7.79087 9.76187 7.6951 9.76187Z" fill="black"/>
<path d="M16.5716 9.8126C15.996 9.8126 14.8787 9.6376 13.7719 8.48027C13.7375 8.44483 13.7098 8.4024 13.6907 8.35541C13.6715 8.30843 13.6612 8.25782 13.6602 8.2065C13.6593 8.15519 13.6678 8.10419 13.6853 8.05643C13.7027 8.00868 13.7288 7.96512 13.762 7.92827C13.7952 7.89142 13.8348 7.86201 13.8785 7.84172C13.9223 7.82144 13.9694 7.81068 14.017 7.81009C14.0647 7.80949 14.112 7.81905 14.1562 7.83823C14.2004 7.8574 14.2406 7.88582 14.2746 7.92182C15.5464 9.25143 16.7793 9.02704 16.8306 9.01654C16.9244 8.99818 17.0212 9.02038 17.0999 9.07832C17.1787 9.13626 17.233 9.22529 17.2512 9.3261C17.2694 9.42675 17.2497 9.53104 17.1966 9.61611C17.1435 9.70118 17.0612 9.76009 16.9678 9.77993C16.9486 9.78382 16.8042 9.8126 16.5716 9.8126Z" fill="black"/>
<path d="M9.38375 9.8128C9.25094 9.81495 9.11822 9.80402 8.98725 9.78013C8.89513 9.75849 8.81452 9.69889 8.76265 9.61408C8.71079 9.52927 8.69179 9.42597 8.70971 9.32628C8.72763 9.22658 8.78105 9.13838 8.85856 9.08054C8.93606 9.0227 9.0315 8.99981 9.12448 9.01675C9.18298 9.02841 10.4126 9.24775 11.6804 7.92202C11.7493 7.85117 11.8415 7.81253 11.9368 7.81453C12.032 7.81652 12.1227 7.85899 12.189 7.93267C12.2554 8.00635 12.2919 8.10528 12.2908 8.20789C12.2897 8.3105 12.251 8.40847 12.1831 8.48047C11.0763 9.63741 9.959 9.8128 9.38339 9.8128H9.38375Z" fill="black"/>
<path d="M19.7732 22.8681C19.7211 22.8682 19.6697 22.8561 19.6224 22.8328C19.5751 22.8095 19.533 22.7754 19.499 22.7329C19.4651 22.6905 19.44 22.6406 19.4257 22.5867C19.4113 22.5329 19.4079 22.4763 19.4157 22.4209C19.4186 22.3987 19.7143 20.1887 18.6465 18.852C18.1139 18.1851 17.3144 17.8359 16.2686 17.8137C15.0733 18.6638 14.0914 19.1931 12.9731 19.2098H12.8944C11.7749 19.1931 10.7941 18.6638 9.59886 17.8137C8.55272 17.8359 7.75359 18.1851 7.22059 18.852C6.15314 20.1883 6.44853 22.3987 6.45178 22.4209C6.46321 22.5212 6.4379 22.6225 6.38121 22.7031C6.32451 22.7837 6.2409 22.8373 6.14809 22.8526C6.05528 22.868 5.96058 22.8438 5.88407 22.7852C5.80755 22.7265 5.75524 22.6382 5.73822 22.5387C5.72306 22.4337 5.38686 19.9592 6.66989 18.3484C7.36431 17.4769 8.38589 17.0352 9.70611 17.0352C9.77732 17.0352 9.84692 17.0579 9.90617 17.1005C11.0451 17.9179 11.9501 18.4266 12.9334 18.432C13.9163 18.427 14.8216 17.9179 15.9606 17.1005C16.0198 17.0577 16.0898 17.0352 16.161 17.0352C17.4812 17.0352 18.5024 17.4765 19.1968 18.3484C20.4802 19.9592 20.1437 22.4341 20.1289 22.5387C20.1158 22.6303 20.0727 22.7139 20.0074 22.7743C19.9421 22.8347 19.8589 22.868 19.7728 22.8681H19.7732Z" fill="black"/>
</svg>
